<?xml version="1.0" encoding="utf-8"?>
<!-- Generator: Adobe Illustrator 26.0.2, SVG Export Plug-In . SVG Version: 6.00 Build 0)  -->
<svg version="1.1" id="Layer_1" xmlns="http://www.w3.org/2000/svg" xmlns:xlink="http://www.w3.org/1999/xlink" x="0px" y="0px"
	 viewBox="0 0 250 100" style="enable-background:new 0 0 250 100;" xml:space="preserve">
<g>
	<g>
		<path d="M97.7,48.8h5.4v12.8h2.5V48.8h5.4v-2.3H97.7V48.8z M71.6,52.2h-7.1v-5.7H62v15.1h2.5v-7.1h7.1v7.1h2.5V46.5h-2.5V52.2z
			 M93.3,50.2c-1.3-0.6-2.7-0.9-4-1.2c-0.7-0.1-1.4-0.2-2-0.4l-0.1,0c-0.9-0.2-1.8-0.3-2.7-0.5c-1-0.2-1.8-0.5-2.5-0.9
			c-0.8-0.5-1.2-1-1.3-1.7c-0.2-1.5,0.3-2.6,1.4-3.4c0.9-0.6,2-0.9,3.4-1c2.5-0.1,4.8,0.5,7,1.9c0,0,0.1,0.1,0.2,0.1l0.3,0.2l1.6-2
			L94.2,41c-0.1,0-0.1-0.1-0.2-0.1c-1.8-1.2-3.8-1.9-5.9-2.2c-2.2-0.3-4.2-0.2-6,0.5c-2.7,1-4.2,2.9-4.3,5.7
			c-0.1,2.1,0.7,3.6,2.5,4.6c1.4,0.8,3,1.1,4.5,1.4c0.7,0.1,1.3,0.2,2,0.4c1,0.2,2,0.4,3,0.6c1,0.2,1.7,0.5,2.4,0.9
			c1,0.7,1.4,1.5,1.2,2.7c-0.2,1.1-0.8,1.9-1.9,2.6c-1.6,1-3.5,1.3-5.8,1c-1.9-0.3-3.8-1.1-5.5-2.4c-0.2-0.1-0.3-0.3-0.5-0.4
			l-0.5-0.4l-1.5,1.7l-0.1,0.2l0.2,0.3l0,0c2.7,2.2,5.5,3.4,8.5,3.7c0.4,0,0.8,0.1,1.2,0.1c1.7,0,3.3-0.4,4.8-1.1
			c1.6-0.8,2.7-1.8,3.4-3.1c0.7-1.4,0.8-2.9,0.4-4.2C95.7,51.9,94.7,50.8,93.3,50.2z M46.5,48.8h5.4v12.8h2.5V48.8h5.4v-2.3H46.5
			V48.8z M220.8,46.4l-6,7.6l-6-7.6l0,0h-1.5v15.1h2.5V51l5.1,6.5l5.1-6.5v10.6h2.5V46.4H220.8z M37.7,46c-0.9-0.2-1.7-0.2-2.4-0.1
			c-0.4,0.1-0.8,0.1-1.1,0.2c1.8-2.1,4.3-4.7,7.1-7.2l0.6-0.6l-1.8,0c-0.5,0-1.1,0-1.5,0c0,0-0.1,0-0.1,0l-0.1,0
			c-0.1,0-0.1,0-0.3,0.2c-2,1.9-4.1,4-6.3,6.5c-1.3,1.5-2.4,3-3.1,4.5c-0.9,1.8-1.2,3.3-1,4.9c0.2,1.6,0.8,2.9,1.7,4
			c1.7,2,3.9,3,6.5,3c0.3,0,0.6,0,0.9,0c1.8-0.1,3.4-0.8,4.8-2c2.6-2.2,3.4-6,1.9-9.1C42.3,48,40.4,46.6,37.7,46z M40.7,55.8
			c-0.7,1.3-1.9,2.3-3.4,2.7c-2.6,0.7-5.2-0.5-6.3-2.8c-0.3-0.7-0.5-1.4-0.5-2.2c0-2.4,1.7-4.5,4.2-5c0.4-0.1,0.8-0.1,1.2-0.1
			c2.1,0,4.1,1.2,4.9,3.2C41.3,52.9,41.3,54.4,40.7,55.8z M168.6,59c-0.6,0-1.2,0.5-1.2,1.1c0,0.6,0.5,1.2,1.2,1.2
			c0.6,0,1.2-0.5,1.2-1.2C169.7,59.5,169.2,59,168.6,59z M152.1,48.8h5.4v12.8h2.5V48.8h5.4v-2.3h-13.2V48.8z M179.9,48.7
			c2.3,0,4.3,1.5,5,3.7l0.1,0.3l2.4-0.7l-0.1-0.3c-1-3.2-3.9-5.3-7.3-5.3c-4.2,0-7.7,3.4-7.7,7.6c0,4.2,3.4,7.6,7.7,7.6
			c3.4,0,6.4-2.1,7.3-5.3l0.1-0.3l-2.4-0.7l-0.1,0.3c-0.7,2.3-2.6,3.7-5,3.7c-2.9,0-5.1-2.3-5.1-5.2C174.7,51.1,177,48.7,179.9,48.7
			z M140.4,61.6h10.2v-2.3h-7.8v-4.7h5.9v-2.3h-5.9v-3.4h7.8v-2.4h-10.2V61.6z M196.9,46.4c-4.3,0-7.7,3.3-7.7,7.6
			c0,4.2,3.4,7.6,7.7,7.6c4.3,0,7.7-3.3,7.7-7.6C204.6,49.8,201.2,46.4,196.9,46.4z M196.9,59.2c-2.9,0-5.1-2.3-5.1-5.2
			c0-2.9,2.3-5.2,5.1-5.2c2.9,0,5.1,2.3,5.1,5.2C202.1,56.9,199.8,59.2,196.9,59.2z M124.3,50.8c0-2.5-1.9-4.4-4.4-4.4h-6.8v15.1
			h2.5v-6.4h3.2l3.7,6.4h2.8l-3.9-6.7C123.3,54.2,124.3,52.7,124.3,50.8z M119.8,52.8h-4.1v-4.1h4.1c1.2,0,2.2,0.9,2.2,2
			C121.9,52.1,120.8,52.8,119.8,52.8z M127.8,61.6H138v-2.3h-7.8v-4.7h5.9v-2.3h-5.9v-3.4h7.8v-2.4h-10.2V61.6z"/>
	</g>
</g>
</svg>
