<?xml version="1.0" encoding="utf-8"?>
<!-- Generator: Adobe Illustrator 26.0.2, SVG Export Plug-In . SVG Version: 6.00 Build 0)  -->
<svg version="1.1" id="Layer_1" xmlns="http://www.w3.org/2000/svg" xmlns:xlink="http://www.w3.org/1999/xlink" x="0px" y="0px"
	 viewBox="0 0 250 100" style="enable-background:new 0 0 250 100;" xml:space="preserve">
<style type="text/css">
	.st0{fill:#020203;}
	.st1{clip-path:url(#SVGID_00000080919640515033207790000010180004157391119758_);}
	.st2{fill:none;}
	.st3{fill:#FFFFFF;}
	.st4{fill:#E52629;}
	.st5{fill:#E3171D;stroke:#E52629;stroke-width:0.2712;stroke-miterlimit:10;}
</style>
<g>
	<g>
		<circle class="st0" cx="127.7" cy="37.3" r="30.6"/>
	</g>
	<g>
		<g>
			<defs>
				<path id="SVGID_1_" d="M139.6,19.5h-0.9h-4.5h-0.1h-0.9h-4.5c0,0-0.7,0.1-0.8,1.1v5.8v0.3c0,0,0,0.5,0.6,0.8
					c0.6,0.3,1.5,0.5,1.5,0.5v6.6h-10.7V28c0,0,1-0.3,1.5-0.5c0.6-0.3,0.6-0.8,0.6-0.8v-0.3v-5.8c-0.1-1-0.8-1.1-0.8-1.1h-0.9h-4.5
					h-0.1h-0.9H110c0,0-0.7,0.1-0.8,1.1v5.8v0.3c0,0,0,0.5,0.6,0.8c0.6,0.3,1.5,0.5,1.5,0.5v10v2.7v10c0,0-1,0.3-1.5,0.5
					c-0.6,0.3-0.6,0.8-0.6,0.8v0.3v5.8c0.1,1,0.8,1.1,0.8,1.1h0.9h4.5h0.1h0.9h4.5c0,0,0.7-0.1,0.8-1.1v-5.8V52c0,0,0-0.5-0.6-0.8
					c-0.6-0.3-1.5-0.5-1.5-0.5v-7.3h10.7v7.3c0,0-1,0.3-1.5,0.5C128,51.5,128,52,128,52v0.3v5.8c0.1,1,0.8,1.1,0.8,1.1h0.9h4.5h0.1
					h0.9h4.5c0,0,0.7-0.1,0.8-1.1v-5.8V52c0,0,0-0.5-0.6-0.8c-0.6-0.3-1.5-0.5-1.5-0.5v-10V38V28c0,0,1-0.3,1.5-0.5
					c0.6-0.3,0.6-0.8,0.6-0.8v-0.3v-5.8C140.4,19.7,139.6,19.5,139.6,19.5z"/>
			</defs>
			<clipPath id="SVGID_00000121983782844559814900000001654003057300607632_">
				<use xlink:href="#SVGID_1_"  style="overflow:visible;"/>
			</clipPath>
			<g style="clip-path:url(#SVGID_00000121983782844559814900000001654003057300607632_);">
				
					<rect x="127.8" y="61.6" transform="matrix(0.7943 -0.6076 0.6076 0.7943 -9.7837 95.901)" class="st2" width="17.7" height="1.6"/>
				
					<rect x="127.6" y="61.7" transform="matrix(0.7943 -0.6076 0.6076 0.7943 -9.6422 95.6901)" class="st3" width="17.7" height="0.8"/>
				
					<rect x="128.1" y="62.3" transform="matrix(0.7943 -0.6076 0.6076 0.7943 -9.9219 96.1068)" class="st0" width="17.7" height="0.8"/>
			</g>
			<g style="clip-path:url(#SVGID_00000121983782844559814900000001654003057300607632_);">
				
					<rect x="126.9" y="60.4" transform="matrix(0.7943 -0.6076 0.6076 0.7943 -9.2185 95.0591)" class="st2" width="17.7" height="1.6"/>
				
					<rect x="126.6" y="60.4" transform="matrix(0.7943 -0.6076 0.6076 0.7943 -9.0769 94.8483)" class="st3" width="17.7" height="0.8"/>
				
					<rect x="127.1" y="61" transform="matrix(0.7943 -0.6076 0.6076 0.7943 -9.3567 95.2649)" class="st0" width="17.7" height="0.8"/>
			</g>
			<g style="clip-path:url(#SVGID_00000121983782844559814900000001654003057300607632_);">
				
					<rect x="125.9" y="59.1" transform="matrix(0.7943 -0.6076 0.6076 0.7943 -8.6532 94.2172)" class="st2" width="17.7" height="1.6"/>
				
					<rect x="125.7" y="59.2" transform="matrix(0.7943 -0.6076 0.6076 0.7943 -8.5116 94.0064)" class="st3" width="17.7" height="0.8"/>
				
					<rect x="126.2" y="59.8" transform="matrix(0.7943 -0.6076 0.6076 0.7943 -8.7914 94.423)" class="st0" width="17.7" height="0.8"/>
			</g>
			<g style="clip-path:url(#SVGID_00000121983782844559814900000001654003057300607632_);">
				
					<rect x="139.1" y="47.1" transform="matrix(0.7943 -0.6076 0.6076 0.7943 1.3636 99.7215)" class="st2" width="17.7" height="1.6"/>
				
					<rect x="138.8" y="47.1" transform="matrix(0.7943 -0.6076 0.6076 0.7943 1.5051 99.5107)" class="st3" width="17.7" height="0.8"/>
				
					<rect x="139.3" y="47.8" transform="matrix(0.7943 -0.6076 0.6076 0.7943 1.2254 99.9273)" class="st0" width="17.7" height="0.8"/>
			</g>
			<g style="clip-path:url(#SVGID_00000121983782844559814900000001654003057300607632_);">
				
					<rect x="125" y="57.8" transform="matrix(0.7943 -0.6076 0.6076 0.7943 -8.0879 93.3753)" class="st2" width="17.7" height="1.6"/>
				
					<rect x="124.7" y="57.9" transform="matrix(0.7943 -0.6076 0.6076 0.7943 -7.9463 93.1645)" class="st3" width="17.7" height="0.8"/>
				
					<rect x="125.2" y="58.5" transform="matrix(0.7943 -0.6076 0.6076 0.7943 -8.2261 93.5811)" class="st0" width="17.7" height="0.8"/>
			</g>
			<g style="clip-path:url(#SVGID_00000121983782844559814900000001654003057300607632_);">
				
					<rect x="138.1" y="45.8" transform="matrix(0.7943 -0.6076 0.6076 0.7943 1.9288 98.8796)" class="st2" width="17.7" height="1.6"/>
				
					<rect x="137.9" y="45.9" transform="matrix(0.7943 -0.6076 0.6076 0.7943 2.0704 98.6688)" class="st3" width="17.7" height="0.8"/>
				
					<rect x="138.3" y="46.5" transform="matrix(0.7943 -0.6076 0.6076 0.7943 1.7907 99.0854)" class="st0" width="17.7" height="0.8"/>
			</g>
			<g style="clip-path:url(#SVGID_00000121983782844559814900000001654003057300607632_);">
				
					<rect x="124" y="56.6" transform="matrix(0.7943 -0.6076 0.6076 0.7943 -7.5226 92.5334)" class="st2" width="17.7" height="1.6"/>
				
					<rect x="123.8" y="56.7" transform="matrix(0.7943 -0.6076 0.6076 0.7943 -7.381 92.3226)" class="st3" width="17.7" height="0.8"/>
				
					<rect x="124.2" y="57.3" transform="matrix(0.7943 -0.6076 0.6076 0.7943 -7.6608 92.7392)" class="st0" width="17.7" height="0.8"/>
			</g>
			<g style="clip-path:url(#SVGID_00000121983782844559814900000001654003057300607632_);">
				
					<rect x="137.1" y="44.5" transform="matrix(0.7943 -0.6076 0.6076 0.7943 2.4941 98.0377)" class="st2" width="17.7" height="1.6"/>
				
					<rect x="136.9" y="44.6" transform="matrix(0.7943 -0.6076 0.6076 0.7943 2.6357 97.8269)" class="st3" width="17.7" height="0.8"/>
				
					<rect x="137.4" y="45.2" transform="matrix(0.7943 -0.6076 0.6076 0.7943 2.3559 98.2435)" class="st0" width="17.7" height="0.8"/>
			</g>
			<g style="clip-path:url(#SVGID_00000121983782844559814900000001654003057300607632_);">
				
					<rect x="123" y="55.3" transform="matrix(0.7943 -0.6076 0.6076 0.7943 -6.9573 91.6916)" class="st2" width="17.7" height="1.6"/>
				
					<rect x="122.8" y="55.4" transform="matrix(0.7943 -0.6076 0.6076 0.7943 -6.8158 91.4807)" class="st3" width="17.7" height="0.8"/>
				
					<rect x="123.3" y="56" transform="matrix(0.7943 -0.6076 0.6076 0.7943 -7.0955 91.8973)" class="st0" width="17.7" height="0.8"/>
			</g>
			<g style="clip-path:url(#SVGID_00000121983782844559814900000001654003057300607632_);">
				
					<rect x="136.2" y="43.3" transform="matrix(0.7943 -0.6076 0.6076 0.7943 3.0594 97.1958)" class="st2" width="17.7" height="1.6"/>
				
					<rect x="135.9" y="43.4" transform="matrix(0.7943 -0.6076 0.6076 0.7943 3.201 96.985)" class="st3" width="17.7" height="0.8"/>
				
					<rect x="136.4" y="44" transform="matrix(0.7943 -0.6076 0.6076 0.7943 2.9212 97.4016)" class="st0" width="17.7" height="0.8"/>
			</g>
			<g style="clip-path:url(#SVGID_00000121983782844559814900000001654003057300607632_);">
				
					<rect x="122.1" y="54.1" transform="matrix(0.7943 -0.6076 0.6076 0.7943 -6.3921 90.8497)" class="st2" width="17.7" height="1.6"/>
				
					<rect x="121.8" y="54.2" transform="matrix(0.7943 -0.6076 0.6076 0.7943 -6.2505 90.6388)" class="st3" width="17.7" height="0.8"/>
				
					<rect x="122.3" y="54.8" transform="matrix(0.7943 -0.6076 0.6076 0.7943 -6.5302 91.0555)" class="st0" width="17.7" height="0.8"/>
			</g>
			<g style="clip-path:url(#SVGID_00000121983782844559814900000001654003057300607632_);">
				
					<rect x="135.2" y="42" transform="matrix(0.7943 -0.6076 0.6076 0.7943 3.6247 96.354)" class="st2" width="17.7" height="1.6"/>
				
					<rect x="135" y="42.1" transform="matrix(0.7943 -0.6076 0.6076 0.7943 3.7663 96.1431)" class="st3" width="17.7" height="0.8"/>
				
					<rect x="135.4" y="42.7" transform="matrix(0.7943 -0.6076 0.6076 0.7943 3.4865 96.5598)" class="st0" width="17.7" height="0.8"/>
			</g>
			<g style="clip-path:url(#SVGID_00000121983782844559814900000001654003057300607632_);">
				
					<rect x="121.1" y="52.8" transform="matrix(0.7943 -0.6076 0.6076 0.7943 -5.8268 90.0078)" class="st2" width="17.7" height="1.6"/>
				
					<rect x="120.9" y="52.9" transform="matrix(0.7943 -0.6076 0.6076 0.7943 -5.6852 89.7969)" class="st3" width="17.7" height="0.8"/>
				
					<rect x="121.4" y="53.5" transform="matrix(0.7943 -0.6076 0.6076 0.7943 -5.965 90.2136)" class="st0" width="17.7" height="0.8"/>
			</g>
			<g style="clip-path:url(#SVGID_00000121983782844559814900000001654003057300607632_);">
				
					<rect x="107" y="63.6" transform="matrix(0.7943 -0.6076 0.6076 0.7943 -15.2782 83.6616)" class="st2" width="17.7" height="1.6"/>
				
					<rect x="106.8" y="63.7" transform="matrix(0.7943 -0.6076 0.6076 0.7943 -15.1367 83.4508)" class="st3" width="17.7" height="0.8"/>
				
					<rect x="107.3" y="64.3" transform="matrix(0.7943 -0.6076 0.6076 0.7943 -15.4164 83.8674)" class="st0" width="17.7" height="0.8"/>
			</g>
			<g style="clip-path:url(#SVGID_00000121983782844559814900000001654003057300607632_);">
				
					<rect x="134.3" y="40.8" transform="matrix(0.7943 -0.6076 0.6076 0.7943 4.19 95.5121)" class="st2" width="17.7" height="1.6"/>
				
					<rect x="134" y="40.9" transform="matrix(0.7943 -0.6076 0.6076 0.7943 4.3315 95.3012)" class="st3" width="17.7" height="0.8"/>
				
					<rect x="134.5" y="41.5" transform="matrix(0.7943 -0.6076 0.6076 0.7943 4.0518 95.7179)" class="st0" width="17.7" height="0.8"/>
			</g>
			<g style="clip-path:url(#SVGID_00000121983782844559814900000001654003057300607632_);">
				
					<rect x="120.2" y="51.6" transform="matrix(0.7943 -0.6076 0.6076 0.7943 -5.2615 89.1659)" class="st2" width="17.7" height="1.6"/>
				
					<rect x="119.9" y="51.6" transform="matrix(0.7943 -0.6076 0.6076 0.7943 -5.1199 88.9551)" class="st3" width="17.7" height="0.8"/>
				
					<rect x="120.4" y="52.3" transform="matrix(0.7943 -0.6076 0.6076 0.7943 -5.3997 89.3717)" class="st0" width="17.7" height="0.8"/>
			</g>
			<g style="clip-path:url(#SVGID_00000121983782844559814900000001654003057300607632_);">
				
					<rect x="106.1" y="62.3" transform="matrix(0.7943 -0.6076 0.6076 0.7943 -14.7129 82.8197)" class="st2" width="17.7" height="1.6"/>
				
					<rect x="105.8" y="62.4" transform="matrix(0.7943 -0.6076 0.6076 0.7943 -14.5714 82.6089)" class="st3" width="17.7" height="0.8"/>
				
					<rect x="106.3" y="63" transform="matrix(0.7943 -0.6076 0.6076 0.7943 -14.8511 83.0255)" class="st0" width="17.7" height="0.8"/>
			</g>
			<g style="clip-path:url(#SVGID_00000121983782844559814900000001654003057300607632_);">
				
					<rect x="133.3" y="39.5" transform="matrix(0.7943 -0.6076 0.6076 0.7943 4.7553 94.6702)" class="st2" width="17.7" height="1.6"/>
				
					<rect x="133.1" y="39.6" transform="matrix(0.7943 -0.6076 0.6076 0.7943 4.8968 94.4594)" class="st3" width="17.7" height="0.8"/>
				
					<rect x="133.5" y="40.2" transform="matrix(0.7943 -0.6076 0.6076 0.7943 4.6171 94.876)" class="st0" width="17.7" height="0.8"/>
			</g>
			<g style="clip-path:url(#SVGID_00000121983782844559814900000001654003057300607632_);">
				
					<rect x="119.2" y="50.3" transform="matrix(0.7943 -0.6076 0.6076 0.7943 -4.6962 88.324)" class="st2" width="17.7" height="1.6"/>
				
					<rect x="119" y="50.4" transform="matrix(0.7943 -0.6076 0.6076 0.7943 -4.5546 88.1132)" class="st3" width="17.7" height="0.8"/>
				
					<rect x="119.4" y="51" transform="matrix(0.7943 -0.6076 0.6076 0.7943 -4.8344 88.5298)" class="st0" width="17.7" height="0.8"/>
			</g>
			<g style="clip-path:url(#SVGID_00000121983782844559814900000001654003057300607632_);">
				
					<rect x="105.1" y="61.1" transform="matrix(0.7943 -0.6076 0.6076 0.7943 -14.1477 81.9778)" class="st2" width="17.7" height="1.6"/>
				
					<rect x="104.9" y="61.2" transform="matrix(0.7943 -0.6076 0.6076 0.7943 -14.0061 81.767)" class="st3" width="17.7" height="0.8"/>
				
					<rect x="105.3" y="61.8" transform="matrix(0.7943 -0.6076 0.6076 0.7943 -14.2859 82.1836)" class="st0" width="17.7" height="0.8"/>
			</g>
			<g style="clip-path:url(#SVGID_00000121983782844559814900000001654003057300607632_);">
				
					<rect x="132.3" y="38.3" transform="matrix(0.7943 -0.6076 0.6076 0.7943 5.3205 93.8283)" class="st2" width="17.7" height="1.6"/>
				
					<rect x="132.1" y="38.3" transform="matrix(0.7943 -0.6076 0.6076 0.7943 5.4621 93.6175)" class="st3" width="17.7" height="0.8"/>
				
					<rect x="132.6" y="39" transform="matrix(0.7943 -0.6076 0.6076 0.7943 5.1824 94.0341)" class="st0" width="17.7" height="0.8"/>
			</g>
			<g style="clip-path:url(#SVGID_00000121983782844559814900000001654003057300607632_);">
				
					<rect x="118.2" y="49.1" transform="matrix(0.7943 -0.6076 0.6076 0.7943 -4.1309 87.4821)" class="st2" width="17.7" height="1.6"/>
				
					<rect x="118" y="49.1" transform="matrix(0.7943 -0.6076 0.6076 0.7943 -3.9893 87.2713)" class="st3" width="17.7" height="0.8"/>
				
					<rect x="118.5" y="49.7" transform="matrix(0.7943 -0.6076 0.6076 0.7943 -4.2691 87.6879)" class="st0" width="17.7" height="0.8"/>
			</g>
			<g style="clip-path:url(#SVGID_00000121983782844559814900000001654003057300607632_);">
				
					<rect x="104.1" y="59.8" transform="matrix(0.7943 -0.6076 0.6076 0.7943 -13.5824 81.1359)" class="st2" width="17.7" height="1.6"/>
				
					<rect x="103.9" y="59.9" transform="matrix(0.7943 -0.6076 0.6076 0.7943 -13.4408 80.9251)" class="st3" width="17.7" height="0.8"/>
				
					<rect x="104.4" y="60.5" transform="matrix(0.7943 -0.6076 0.6076 0.7943 -13.7206 81.3417)" class="st0" width="17.7" height="0.8"/>
			</g>
			<g style="clip-path:url(#SVGID_00000121983782844559814900000001654003057300607632_);">
				
					<rect x="131.4" y="37" transform="matrix(0.7943 -0.6076 0.6076 0.7943 5.8858 92.9864)" class="st2" width="17.7" height="1.6"/>
				
					<rect x="131.1" y="37.1" transform="matrix(0.7943 -0.6076 0.6076 0.7943 6.0274 92.7756)" class="st3" width="17.7" height="0.8"/>
				
					<rect x="131.6" y="37.7" transform="matrix(0.7943 -0.6076 0.6076 0.7943 5.7476 93.1922)" class="st0" width="17.7" height="0.8"/>
			</g>
			<g style="clip-path:url(#SVGID_00000121983782844559814900000001654003057300607632_);">
				
					<rect x="117.3" y="47.8" transform="matrix(0.7943 -0.6076 0.6076 0.7943 -3.5656 86.6402)" class="st2" width="17.7" height="1.6"/>
				
					<rect x="117" y="47.9" transform="matrix(0.7943 -0.6076 0.6076 0.7943 -3.4241 86.4294)" class="st3" width="17.7" height="0.8"/>
				
					<rect x="117.5" y="48.5" transform="matrix(0.7943 -0.6076 0.6076 0.7943 -3.7038 86.846)" class="st0" width="17.7" height="0.8"/>
			</g>
			<g style="clip-path:url(#SVGID_00000121983782844559814900000001654003057300607632_);">
				
					<rect x="103.2" y="58.6" transform="matrix(0.7943 -0.6076 0.6076 0.7943 -13.0171 80.2941)" class="st2" width="17.7" height="1.6"/>
				
					<rect x="102.9" y="58.7" transform="matrix(0.7943 -0.6076 0.6076 0.7943 -12.8755 80.0832)" class="st3" width="17.7" height="0.8"/>
				
					<rect x="103.4" y="59.3" transform="matrix(0.7943 -0.6076 0.6076 0.7943 -13.1553 80.4999)" class="st0" width="17.7" height="0.8"/>
			</g>
			<g style="clip-path:url(#SVGID_00000121983782844559814900000001654003057300607632_);">
				
					<rect x="130.4" y="35.8" transform="matrix(0.7943 -0.6076 0.6076 0.7943 6.4511 92.1445)" class="st2" width="17.7" height="1.6"/>
				
					<rect x="130.2" y="35.8" transform="matrix(0.7943 -0.6076 0.6076 0.7943 6.5927 91.9337)" class="st3" width="17.7" height="0.8"/>
				
					<rect x="130.6" y="36.4" transform="matrix(0.7943 -0.6076 0.6076 0.7943 6.3129 92.3503)" class="st0" width="17.7" height="0.8"/>
			</g>
			<g style="clip-path:url(#SVGID_00000121983782844559814900000001654003057300607632_);">
				
					<rect x="116.3" y="46.5" transform="matrix(0.7943 -0.6076 0.6076 0.7943 -3.0004 85.7984)" class="st2" width="17.7" height="1.6"/>
				
					<rect x="116.1" y="46.6" transform="matrix(0.7943 -0.6076 0.6076 0.7943 -2.8588 85.5875)" class="st3" width="17.7" height="0.8"/>
				
					<rect x="116.6" y="47.2" transform="matrix(0.7943 -0.6076 0.6076 0.7943 -3.1385 86.0042)" class="st0" width="17.7" height="0.8"/>
			</g>
			<g style="clip-path:url(#SVGID_00000121983782844559814900000001654003057300607632_);">
				
					<rect x="102.2" y="57.3" transform="matrix(0.7943 -0.6076 0.6076 0.7943 -12.4518 79.4522)" class="st2" width="17.7" height="1.6"/>
				
					<rect x="102" y="57.4" transform="matrix(0.7943 -0.6076 0.6076 0.7943 -12.3102 79.2413)" class="st3" width="17.7" height="0.8"/>
				
					<rect x="102.5" y="58" transform="matrix(0.7943 -0.6076 0.6076 0.7943 -12.59 79.658)" class="st0" width="17.7" height="0.8"/>
			</g>
			<g style="clip-path:url(#SVGID_00000121983782844559814900000001654003057300607632_);">
				
					<rect x="129.5" y="34.5" transform="matrix(0.7943 -0.6076 0.6076 0.7943 7.0164 91.3027)" class="st2" width="17.7" height="1.6"/>
				
					<rect x="129.2" y="34.6" transform="matrix(0.7943 -0.6076 0.6076 0.7943 7.158 91.0918)" class="st3" width="17.7" height="0.8"/>
				
					<rect x="129.7" y="35.2" transform="matrix(0.7943 -0.6076 0.6076 0.7943 6.8782 91.5085)" class="st0" width="17.7" height="0.8"/>
			</g>
			<g style="clip-path:url(#SVGID_00000121983782844559814900000001654003057300607632_);">
				
					<rect x="115.4" y="45.3" transform="matrix(0.7943 -0.6076 0.6076 0.7943 -2.4351 84.9565)" class="st2" width="17.7" height="1.6"/>
				
					<rect x="115.1" y="45.4" transform="matrix(0.7943 -0.6076 0.6076 0.7943 -2.2935 84.7456)" class="st3" width="17.7" height="0.8"/>
				
					<rect x="115.6" y="46" transform="matrix(0.7943 -0.6076 0.6076 0.7943 -2.5733 85.1623)" class="st0" width="17.7" height="0.8"/>
			</g>
			<g style="clip-path:url(#SVGID_00000121983782844559814900000001654003057300607632_);">
				
					<rect x="101.3" y="56.1" transform="matrix(0.7943 -0.6076 0.6076 0.7943 -11.8865 78.6103)" class="st2" width="17.7" height="1.6"/>
				
					<rect x="101" y="56.1" transform="matrix(0.7943 -0.6076 0.6076 0.7943 -11.745 78.3995)" class="st3" width="17.7" height="0.8"/>
				
					<rect x="101.5" y="56.8" transform="matrix(0.7943 -0.6076 0.6076 0.7943 -12.0247 78.8161)" class="st0" width="17.7" height="0.8"/>
			</g>
			<g style="clip-path:url(#SVGID_00000121983782844559814900000001654003057300607632_);">
				
					<rect x="128.5" y="33.2" transform="matrix(0.7943 -0.6076 0.6076 0.7943 7.5817 90.4608)" class="st2" width="17.7" height="1.6"/>
				
					<rect x="128.3" y="33.3" transform="matrix(0.7943 -0.6076 0.6076 0.7943 7.7232 90.2499)" class="st3" width="17.7" height="0.8"/>
				
					<rect x="128.7" y="33.9" transform="matrix(0.7943 -0.6076 0.6076 0.7943 7.4435 90.6666)" class="st0" width="17.7" height="0.8"/>
			</g>
			<g style="clip-path:url(#SVGID_00000121983782844559814900000001654003057300607632_);">
				
					<rect x="114.4" y="44" transform="matrix(0.7943 -0.6076 0.6076 0.7943 -1.8698 84.1146)" class="st2" width="17.7" height="1.6"/>
				
					<rect x="114.2" y="44.1" transform="matrix(0.7943 -0.6076 0.6076 0.7943 -1.7282 83.9037)" class="st3" width="17.7" height="0.8"/>
				
					<rect x="114.6" y="44.7" transform="matrix(0.7943 -0.6076 0.6076 0.7943 -2.008 84.3204)" class="st0" width="17.7" height="0.8"/>
			</g>
			<g style="clip-path:url(#SVGID_00000121983782844559814900000001654003057300607632_);">
				
					<rect x="100.3" y="54.8" transform="matrix(0.7943 -0.6076 0.6076 0.7943 -11.3212 77.7684)" class="st2" width="17.7" height="1.6"/>
				
					<rect x="100.1" y="54.9" transform="matrix(0.7943 -0.6076 0.6076 0.7943 -11.1797 77.5576)" class="st3" width="17.7" height="0.8"/>
				
					<rect x="100.5" y="55.5" transform="matrix(0.7943 -0.6076 0.6076 0.7943 -11.4594 77.9742)" class="st0" width="17.7" height="0.8"/>
			</g>
			<g style="clip-path:url(#SVGID_00000121983782844559814900000001654003057300607632_);">
				
					<rect x="127.5" y="32" transform="matrix(0.7943 -0.6076 0.6076 0.7943 8.147 89.6189)" class="st2" width="17.7" height="1.6"/>
				
					<rect x="127.3" y="32.1" transform="matrix(0.7943 -0.6076 0.6076 0.7943 8.2885 89.408)" class="st3" width="17.7" height="0.8"/>
				
					<rect x="127.8" y="32.7" transform="matrix(0.7943 -0.6076 0.6076 0.7943 8.0088 89.8247)" class="st0" width="17.7" height="0.8"/>
			</g>
			<g style="clip-path:url(#SVGID_00000121983782844559814900000001654003057300607632_);">
				
					<rect x="113.4" y="42.8" transform="matrix(0.7943 -0.6076 0.6076 0.7943 -1.3045 83.2727)" class="st2" width="17.7" height="1.6"/>
				
					<rect x="113.2" y="42.9" transform="matrix(0.7943 -0.6076 0.6076 0.7943 -1.1629 83.0619)" class="st3" width="17.7" height="0.8"/>
				
					<rect x="113.7" y="43.5" transform="matrix(0.7943 -0.6076 0.6076 0.7943 -1.4427 83.4785)" class="st0" width="17.7" height="0.8"/>
			</g>
			<g style="clip-path:url(#SVGID_00000121983782844559814900000001654003057300607632_);">
				
					<rect x="99.3" y="53.6" transform="matrix(0.7943 -0.6076 0.6076 0.7943 -10.756 76.9265)" class="st2" width="17.7" height="1.6"/>
				
					<rect x="99.1" y="53.6" transform="matrix(0.7943 -0.6076 0.6076 0.7943 -10.6144 76.7157)" class="st3" width="17.7" height="0.8"/>
				
					<rect x="99.6" y="54.2" transform="matrix(0.7943 -0.6076 0.6076 0.7943 -10.8942 77.1323)" class="st0" width="17.7" height="0.8"/>
			</g>
			<g style="clip-path:url(#SVGID_00000121983782844559814900000001654003057300607632_);">
				
					<rect x="126.6" y="30.7" transform="matrix(0.7943 -0.6076 0.6076 0.7943 8.7122 88.777)" class="st2" width="17.7" height="1.6"/>
				
					<rect x="126.3" y="30.8" transform="matrix(0.7943 -0.6076 0.6076 0.7943 8.8538 88.5662)" class="st3" width="17.7" height="0.8"/>
				
					<rect x="126.8" y="31.4" transform="matrix(0.7943 -0.6076 0.6076 0.7943 8.5741 88.9828)" class="st0" width="17.7" height="0.8"/>
			</g>
			<g style="clip-path:url(#SVGID_00000121983782844559814900000001654003057300607632_);">
				
					<rect x="112.5" y="41.5" transform="matrix(0.7943 -0.6076 0.6076 0.7943 -0.7392 82.4308)" class="st2" width="17.7" height="1.6"/>
				
					<rect x="112.2" y="41.6" transform="matrix(0.7943 -0.6076 0.6076 0.7943 -0.5976 82.22)" class="st3" width="17.7" height="0.8"/>
				
					<rect x="112.7" y="42.2" transform="matrix(0.7943 -0.6076 0.6076 0.7943 -0.8774 82.6366)" class="st0" width="17.7" height="0.8"/>
			</g>
			<g style="clip-path:url(#SVGID_00000121983782844559814900000001654003057300607632_);">
				
					<rect x="98.4" y="52.3" transform="matrix(0.7943 -0.6076 0.6076 0.7943 -10.1907 76.0846)" class="st2" width="17.7" height="1.6"/>
				
					<rect x="98.1" y="52.4" transform="matrix(0.7943 -0.6076 0.6076 0.7943 -10.0491 75.8738)" class="st3" width="17.7" height="0.8"/>
				
					<rect x="98.6" y="53" transform="matrix(0.7943 -0.6076 0.6076 0.7943 -10.3289 76.2904)" class="st0" width="17.7" height="0.8"/>
			</g>
			<g style="clip-path:url(#SVGID_00000121983782844559814900000001654003057300607632_);">
				
					<rect x="125.6" y="29.5" transform="matrix(0.7943 -0.6076 0.6076 0.7943 9.2775 87.9351)" class="st2" width="17.7" height="1.6"/>
				
					<rect x="125.4" y="29.6" transform="matrix(0.7943 -0.6076 0.6076 0.7943 9.4191 87.7243)" class="st3" width="17.7" height="0.8"/>
				
					<rect x="125.8" y="30.2" transform="matrix(0.7943 -0.6076 0.6076 0.7943 9.1393 88.1409)" class="st0" width="17.7" height="0.8"/>
			</g>
			<g style="clip-path:url(#SVGID_00000121983782844559814900000001654003057300607632_);">
				
					<rect x="111.5" y="40.3" transform="matrix(0.7943 -0.6076 0.6076 0.7943 -0.1739 81.5889)" class="st2" width="17.7" height="1.6"/>
				
					<rect x="111.3" y="40.3" transform="matrix(0.7943 -0.6076 0.6076 0.7943 -3.236663e-02 81.3781)" class="st3" width="17.7" height="0.8"/>
				
					<rect x="111.7" y="41" transform="matrix(0.7943 -0.6076 0.6076 0.7943 -0.3121 81.7947)" class="st0" width="17.7" height="0.8"/>
			</g>
			<g style="clip-path:url(#SVGID_00000121983782844559814900000001654003057300607632_);">
				
					<rect x="97.4" y="51" transform="matrix(0.7943 -0.6076 0.6076 0.7943 -9.6254 75.2428)" class="st2" width="17.7" height="1.6"/>
				
					<rect x="97.2" y="51.1" transform="matrix(0.7943 -0.6076 0.6076 0.7943 -9.4838 75.0319)" class="st3" width="17.7" height="0.8"/>
				
					<rect x="97.7" y="51.7" transform="matrix(0.7943 -0.6076 0.6076 0.7943 -9.7636 75.4485)" class="st0" width="17.7" height="0.8"/>
			</g>
			<g style="clip-path:url(#SVGID_00000121983782844559814900000001654003057300607632_);">
				
					<rect x="138.7" y="17.4" transform="matrix(0.7943 -0.6076 0.6076 0.7943 19.2943 93.4394)" class="st2" width="17.7" height="1.6"/>
				
					<rect x="138.5" y="17.5" transform="matrix(0.7943 -0.6076 0.6076 0.7943 19.4358 93.2286)" class="st3" width="17.7" height="0.8"/>
				
					<rect x="139" y="18.1" transform="matrix(0.7943 -0.6076 0.6076 0.7943 19.1561 93.6452)" class="st0" width="17.7" height="0.8"/>
			</g>
			<g style="clip-path:url(#SVGID_00000121983782844559814900000001654003057300607632_);">
				
					<rect x="124.6" y="28.2" transform="matrix(0.7943 -0.6076 0.6076 0.7943 9.8428 87.0932)" class="st2" width="17.7" height="1.6"/>
				
					<rect x="124.4" y="28.3" transform="matrix(0.7943 -0.6076 0.6076 0.7943 9.9844 86.8824)" class="st3" width="17.7" height="0.8"/>
				
					<rect x="124.9" y="28.9" transform="matrix(0.7943 -0.6076 0.6076 0.7943 9.7046 87.299)" class="st0" width="17.7" height="0.8"/>
			</g>
			<g style="clip-path:url(#SVGID_00000121983782844559814900000001654003057300607632_);">
				
					<rect x="110.6" y="39" transform="matrix(0.7943 -0.6076 0.6076 0.7943 0.3913 80.747)" class="st2" width="17.7" height="1.6"/>
				
					<rect x="110.3" y="39.1" transform="matrix(0.7943 -0.6076 0.6076 0.7943 0.5329 80.5362)" class="st3" width="17.7" height="0.8"/>
				
					<rect x="110.8" y="39.7" transform="matrix(0.7943 -0.6076 0.6076 0.7943 0.2532 80.9529)" class="st0" width="17.7" height="0.8"/>
			</g>
			<g style="clip-path:url(#SVGID_00000121983782844559814900000001654003057300607632_);">
				
					<rect x="96.5" y="49.8" transform="matrix(0.7943 -0.6076 0.6076 0.7943 -9.0601 74.4009)" class="st2" width="17.7" height="1.6"/>
				
					<rect x="96.2" y="49.9" transform="matrix(0.7943 -0.6076 0.6076 0.7943 -8.9185 74.19)" class="st3" width="17.7" height="0.8"/>
				
					<rect x="96.7" y="50.5" transform="matrix(0.7943 -0.6076 0.6076 0.7943 -9.1983 74.6067)" class="st0" width="17.7" height="0.8"/>
			</g>
			<g style="clip-path:url(#SVGID_00000121983782844559814900000001654003057300607632_);">
				
					<rect x="137.8" y="16.2" transform="matrix(0.7943 -0.6076 0.6076 0.7943 19.8596 92.5975)" class="st2" width="17.7" height="1.6"/>
				
					<rect x="137.5" y="16.3" transform="matrix(0.7943 -0.6076 0.6076 0.7943 20.0011 92.3867)" class="st3" width="17.7" height="0.8"/>
				
					<rect x="138" y="16.9" transform="matrix(0.7943 -0.6076 0.6076 0.7943 19.7214 92.8033)" class="st0" width="17.7" height="0.8"/>
			</g>
			<g style="clip-path:url(#SVGID_00000121983782844559814900000001654003057300607632_);">
				
					<rect x="123.7" y="27" transform="matrix(0.7943 -0.6076 0.6076 0.7943 10.4081 86.2514)" class="st2" width="17.7" height="1.6"/>
				
					<rect x="123.4" y="27" transform="matrix(0.7943 -0.6076 0.6076 0.7943 10.5497 86.0405)" class="st3" width="17.7" height="0.8"/>
				
					<rect x="123.9" y="27.7" transform="matrix(0.7943 -0.6076 0.6076 0.7943 10.2699 86.4571)" class="st0" width="17.7" height="0.8"/>
			</g>
			<g style="clip-path:url(#SVGID_00000121983782844559814900000001654003057300607632_);">
				
					<rect x="109.6" y="37.7" transform="matrix(0.7943 -0.6076 0.6076 0.7943 0.9566 79.9052)" class="st2" width="17.7" height="1.6"/>
				
					<rect x="109.4" y="37.8" transform="matrix(0.7943 -0.6076 0.6076 0.7943 1.0982 79.6943)" class="st3" width="17.7" height="0.8"/>
				
					<rect x="109.8" y="38.4" transform="matrix(0.7943 -0.6076 0.6076 0.7943 0.8184 80.111)" class="st0" width="17.7" height="0.8"/>
			</g>
			<g style="clip-path:url(#SVGID_00000121983782844559814900000001654003057300607632_);">
				
					<rect x="95.5" y="48.5" transform="matrix(0.7943 -0.6076 0.6076 0.7943 -8.4948 73.559)" class="st2" width="17.7" height="1.6"/>
				
					<rect x="95.3" y="48.6" transform="matrix(0.7943 -0.6076 0.6076 0.7943 -8.3533 73.3481)" class="st3" width="17.7" height="0.8"/>
				
					<rect x="95.7" y="49.2" transform="matrix(0.7943 -0.6076 0.6076 0.7943 -8.633 73.7648)" class="st0" width="17.7" height="0.8"/>
			</g>
			<g style="clip-path:url(#SVGID_00000121983782844559814900000001654003057300607632_);">
				
					<rect x="136.8" y="14.9" transform="matrix(0.7943 -0.6076 0.6076 0.7943 20.4248 91.7556)" class="st2" width="17.7" height="1.6"/>
				
					<rect x="136.6" y="15" transform="matrix(0.7943 -0.6076 0.6076 0.7943 20.5664 91.5448)" class="st3" width="17.7" height="0.8"/>
				
					<rect x="137.1" y="15.6" transform="matrix(0.7943 -0.6076 0.6076 0.7943 20.2867 91.9614)" class="st0" width="17.7" height="0.8"/>
			</g>
			<g style="clip-path:url(#SVGID_00000121983782844559814900000001654003057300607632_);">
				
					<rect x="122.7" y="25.7" transform="matrix(0.7943 -0.6076 0.6076 0.7943 10.9734 85.4095)" class="st2" width="17.7" height="1.6"/>
				
					<rect x="122.5" y="25.8" transform="matrix(0.7943 -0.6076 0.6076 0.7943 11.1149 85.1986)" class="st3" width="17.7" height="0.8"/>
				
					<rect x="123" y="26.4" transform="matrix(0.7943 -0.6076 0.6076 0.7943 10.8352 85.6153)" class="st0" width="17.7" height="0.8"/>
			</g>
			<g style="clip-path:url(#SVGID_00000121983782844559814900000001654003057300607632_);">
				
					<rect x="108.6" y="36.5" transform="matrix(0.7943 -0.6076 0.6076 0.7943 1.5219 79.0633)" class="st2" width="17.7" height="1.6"/>
				
					<rect x="108.4" y="36.6" transform="matrix(0.7943 -0.6076 0.6076 0.7943 1.6635 78.8524)" class="st3" width="17.7" height="0.8"/>
				
					<rect x="108.9" y="37.2" transform="matrix(0.7943 -0.6076 0.6076 0.7943 1.3837 79.2691)" class="st0" width="17.7" height="0.8"/>
			</g>
			<g style="clip-path:url(#SVGID_00000121983782844559814900000001654003057300607632_);">
				
					<rect x="94.5" y="47.3" transform="matrix(0.7943 -0.6076 0.6076 0.7943 -7.9296 72.7171)" class="st2" width="17.7" height="1.6"/>
				
					<rect x="94.3" y="47.4" transform="matrix(0.7943 -0.6076 0.6076 0.7943 -7.788 72.5063)" class="st3" width="17.7" height="0.8"/>
				
					<rect x="94.8" y="48" transform="matrix(0.7943 -0.6076 0.6076 0.7943 -8.0677 72.9229)" class="st0" width="17.7" height="0.8"/>
			</g>
			<g style="clip-path:url(#SVGID_00000121983782844559814900000001654003057300607632_);">
				
					<rect x="135.9" y="13.7" transform="matrix(0.7943 -0.6076 0.6076 0.7943 20.9901 90.9138)" class="st2" width="17.7" height="1.6"/>
				
					<rect x="135.6" y="13.8" transform="matrix(0.7943 -0.6076 0.6076 0.7943 21.1317 90.7029)" class="st3" width="17.7" height="0.8"/>
				
					<rect x="136.1" y="14.4" transform="matrix(0.7943 -0.6076 0.6076 0.7943 20.8519 91.1196)" class="st0" width="17.7" height="0.8"/>
			</g>
			<g style="clip-path:url(#SVGID_00000121983782844559814900000001654003057300607632_);">
				
					<rect x="121.8" y="24.5" transform="matrix(0.7943 -0.6076 0.6076 0.7943 11.5387 84.5676)" class="st2" width="17.7" height="1.6"/>
				
					<rect x="121.5" y="24.5" transform="matrix(0.7943 -0.6076 0.6076 0.7943 11.6802 84.3567)" class="st3" width="17.7" height="0.8"/>
				
					<rect x="122" y="25.1" transform="matrix(0.7943 -0.6076 0.6076 0.7943 11.4005 84.7734)" class="st0" width="17.7" height="0.8"/>
			</g>
			<g style="clip-path:url(#SVGID_00000121983782844559814900000001654003057300607632_);">
				
					<rect x="107.7" y="35.2" transform="matrix(0.7943 -0.6076 0.6076 0.7943 2.0872 78.2214)" class="st2" width="17.7" height="1.6"/>
				
					<rect x="107.4" y="35.3" transform="matrix(0.7943 -0.6076 0.6076 0.7943 2.2288 78.0106)" class="st3" width="17.7" height="0.8"/>
				
					<rect x="107.9" y="35.9" transform="matrix(0.7943 -0.6076 0.6076 0.7943 1.949 78.4272)" class="st0" width="17.7" height="0.8"/>
			</g>
			<g style="clip-path:url(#SVGID_00000121983782844559814900000001654003057300607632_);">
				
					<rect x="93.6" y="46" transform="matrix(0.7943 -0.6076 0.6076 0.7943 -7.3643 71.8752)" class="st2" width="17.7" height="1.6"/>
				
					<rect x="93.3" y="46.1" transform="matrix(0.7943 -0.6076 0.6076 0.7943 -7.2227 71.6644)" class="st3" width="17.7" height="0.8"/>
				
					<rect x="93.8" y="46.7" transform="matrix(0.7943 -0.6076 0.6076 0.7943 -7.5025 72.081)" class="st0" width="17.7" height="0.8"/>
			</g>
			<g style="clip-path:url(#SVGID_00000121983782844559814900000001654003057300607632_);">
				
					<rect x="120.8" y="23.2" transform="matrix(0.7943 -0.6076 0.6076 0.7943 12.1039 83.7257)" class="st2" width="17.7" height="1.6"/>
				
					<rect x="120.6" y="23.3" transform="matrix(0.7943 -0.6076 0.6076 0.7943 12.2455 83.5149)" class="st3" width="17.7" height="0.8"/>
				
					<rect x="121" y="23.9" transform="matrix(0.7943 -0.6076 0.6076 0.7943 11.9658 83.9315)" class="st0" width="17.7" height="0.8"/>
			</g>
			<g style="clip-path:url(#SVGID_00000121983782844559814900000001654003057300607632_);">
				
					<rect x="106.7" y="34" transform="matrix(0.7943 -0.6076 0.6076 0.7943 2.6525 77.3795)" class="st2" width="17.7" height="1.6"/>
				
					<rect x="106.5" y="34.1" transform="matrix(0.7943 -0.6076 0.6076 0.7943 2.794 77.1687)" class="st3" width="17.7" height="0.8"/>
				
					<rect x="106.9" y="34.7" transform="matrix(0.7943 -0.6076 0.6076 0.7943 2.5143 77.5853)" class="st0" width="17.7" height="0.8"/>
			</g>
			<g style="clip-path:url(#SVGID_00000121983782844559814900000001654003057300607632_);">
				
					<rect x="119.8" y="21.9" transform="matrix(0.7943 -0.6076 0.6076 0.7943 12.6692 82.8838)" class="st2" width="17.7" height="1.6"/>
				
					<rect x="119.6" y="22" transform="matrix(0.7943 -0.6076 0.6076 0.7943 12.8108 82.673)" class="st3" width="17.7" height="0.8"/>
				
					<rect x="120.1" y="22.6" transform="matrix(0.7943 -0.6076 0.6076 0.7943 12.531 83.0896)" class="st0" width="17.7" height="0.8"/>
			</g>
			<g style="clip-path:url(#SVGID_00000121983782844559814900000001654003057300607632_);">
				
					<rect x="105.8" y="32.7" transform="matrix(0.7943 -0.6076 0.6076 0.7943 3.2178 76.5376)" class="st2" width="17.7" height="1.6"/>
				
					<rect x="105.5" y="32.8" transform="matrix(0.7943 -0.6076 0.6076 0.7943 3.3593 76.3268)" class="st3" width="17.7" height="0.8"/>
				
					<rect x="106" y="33.4" transform="matrix(0.7943 -0.6076 0.6076 0.7943 3.0796 76.7434)" class="st0" width="17.7" height="0.8"/>
			</g>
			<g style="clip-path:url(#SVGID_00000121983782844559814900000001654003057300607632_);">
				
					<rect x="118.9" y="20.7" transform="matrix(0.7943 -0.6076 0.6076 0.7943 13.2345 82.0419)" class="st2" width="17.7" height="1.6"/>
				
					<rect x="118.6" y="20.8" transform="matrix(0.7943 -0.6076 0.6076 0.7943 13.3761 81.8311)" class="st3" width="17.7" height="0.8"/>
				
					<rect x="119.1" y="21.4" transform="matrix(0.7943 -0.6076 0.6076 0.7943 13.0963 82.2477)" class="st0" width="17.7" height="0.8"/>
			</g>
			<g style="clip-path:url(#SVGID_00000121983782844559814900000001654003057300607632_);">
				
					<rect x="104.8" y="31.5" transform="matrix(0.7943 -0.6076 0.6076 0.7943 3.783 75.6957)" class="st2" width="17.7" height="1.6"/>
				
					<rect x="104.5" y="31.6" transform="matrix(0.7943 -0.6076 0.6076 0.7943 3.9246 75.4849)" class="st3" width="17.7" height="0.8"/>
				
					<rect x="105" y="32.2" transform="matrix(0.7943 -0.6076 0.6076 0.7943 3.6449 75.9015)" class="st0" width="17.7" height="0.8"/>
			</g>
			<g style="clip-path:url(#SVGID_00000121983782844559814900000001654003057300607632_);">
				
					<rect x="117.9" y="19.4" transform="matrix(0.7943 -0.6076 0.6076 0.7943 13.7998 81.2)" class="st2" width="17.7" height="1.6"/>
				
					<rect x="117.7" y="19.5" transform="matrix(0.7943 -0.6076 0.6076 0.7943 13.9414 80.9892)" class="st3" width="17.7" height="0.8"/>
				
					<rect x="118.2" y="20.1" transform="matrix(0.7943 -0.6076 0.6076 0.7943 13.6616 81.4058)" class="st0" width="17.7" height="0.8"/>
			</g>
			<g style="clip-path:url(#SVGID_00000121983782844559814900000001654003057300607632_);">
				
					<rect x="103.8" y="30.2" transform="matrix(0.7943 -0.6076 0.6076 0.7943 4.3483 74.8539)" class="st2" width="17.7" height="1.6"/>
				
					<rect x="103.6" y="30.3" transform="matrix(0.7943 -0.6076 0.6076 0.7943 4.4899 74.643)" class="st3" width="17.7" height="0.8"/>
				
					<rect x="104.1" y="30.9" transform="matrix(0.7943 -0.6076 0.6076 0.7943 4.2101 75.0597)" class="st0" width="17.7" height="0.8"/>
			</g>
			<g style="clip-path:url(#SVGID_00000121983782844559814900000001654003057300607632_);">
				
					<rect x="117" y="18.2" transform="matrix(0.7943 -0.6076 0.6076 0.7943 14.3651 80.3582)" class="st2" width="17.7" height="1.6"/>
				
					<rect x="116.7" y="18.3" transform="matrix(0.7943 -0.6076 0.6076 0.7943 14.5066 80.1473)" class="st3" width="17.7" height="0.8"/>
				
					<rect x="117.2" y="18.9" transform="matrix(0.7943 -0.6076 0.6076 0.7943 14.2269 80.564)" class="st0" width="17.7" height="0.8"/>
			</g>
			<g style="clip-path:url(#SVGID_00000121983782844559814900000001654003057300607632_);">
				
					<rect x="102.9" y="29" transform="matrix(0.7943 -0.6076 0.6076 0.7943 4.9136 74.012)" class="st2" width="17.7" height="1.6"/>
				
					<rect x="102.6" y="29" transform="matrix(0.7943 -0.6076 0.6076 0.7943 5.0552 73.8011)" class="st3" width="17.7" height="0.8"/>
				
					<rect x="103.1" y="29.7" transform="matrix(0.7943 -0.6076 0.6076 0.7943 4.7754 74.2178)" class="st0" width="17.7" height="0.8"/>
			</g>
			<g style="clip-path:url(#SVGID_00000121983782844559814900000001654003057300607632_);">
				
					<rect x="116" y="16.9" transform="matrix(0.7943 -0.6076 0.6076 0.7943 14.9304 79.5163)" class="st2" width="17.7" height="1.6"/>
				
					<rect x="115.8" y="17" transform="matrix(0.7943 -0.6076 0.6076 0.7943 15.0719 79.3054)" class="st3" width="17.7" height="0.8"/>
				
					<rect x="116.2" y="17.6" transform="matrix(0.7943 -0.6076 0.6076 0.7943 14.7922 79.7221)" class="st0" width="17.7" height="0.8"/>
			</g>
			<g style="clip-path:url(#SVGID_00000121983782844559814900000001654003057300607632_);">
				
					<rect x="101.9" y="27.7" transform="matrix(0.7943 -0.6076 0.6076 0.7943 5.4789 73.1701)" class="st2" width="17.7" height="1.6"/>
				
					<rect x="101.7" y="27.8" transform="matrix(0.7943 -0.6076 0.6076 0.7943 5.6205 72.9592)" class="st3" width="17.7" height="0.8"/>
				
					<rect x="102.1" y="28.4" transform="matrix(0.7943 -0.6076 0.6076 0.7943 5.3407 73.3759)" class="st0" width="17.7" height="0.8"/>
			</g>
			<g style="clip-path:url(#SVGID_00000121983782844559814900000001654003057300607632_);">
				
					<rect x="115" y="15.7" transform="matrix(0.7943 -0.6076 0.6076 0.7943 15.4956 78.6744)" class="st2" width="17.7" height="1.6"/>
				
					<rect x="114.8" y="15.7" transform="matrix(0.7943 -0.6076 0.6076 0.7943 15.6372 78.4635)" class="st3" width="17.7" height="0.8"/>
				
					<rect x="115.3" y="16.4" transform="matrix(0.7943 -0.6076 0.6076 0.7943 15.3575 78.8802)" class="st0" width="17.7" height="0.8"/>
			</g>
			<g style="clip-path:url(#SVGID_00000121983782844559814900000001654003057300607632_);">
				
					<rect x="100.9" y="26.4" transform="matrix(0.7943 -0.6076 0.6076 0.7943 6.0442 72.3282)" class="st2" width="17.7" height="1.6"/>
				
					<rect x="100.7" y="26.5" transform="matrix(0.7943 -0.6076 0.6076 0.7943 6.1857 72.1174)" class="st3" width="17.7" height="0.8"/>
				
					<rect x="101.2" y="27.1" transform="matrix(0.7943 -0.6076 0.6076 0.7943 5.906 72.534)" class="st0" width="17.7" height="0.8"/>
			</g>
			<g style="clip-path:url(#SVGID_00000121983782844559814900000001654003057300607632_);">
				
					<rect x="114.1" y="14.4" transform="matrix(0.7943 -0.6076 0.6076 0.7943 16.0609 77.8325)" class="st2" width="17.7" height="1.6"/>
				
					<rect x="113.8" y="14.5" transform="matrix(0.7943 -0.6076 0.6076 0.7943 16.2025 77.6217)" class="st3" width="17.7" height="0.8"/>
				
					<rect x="114.3" y="15.1" transform="matrix(0.7943 -0.6076 0.6076 0.7943 15.9227 78.0383)" class="st0" width="17.7" height="0.8"/>
			</g>
			<g style="clip-path:url(#SVGID_00000121983782844559814900000001654003057300607632_);">
				
					<rect x="100" y="25.2" transform="matrix(0.7943 -0.6076 0.6076 0.7943 6.6095 71.4863)" class="st2" width="17.7" height="1.6"/>
				
					<rect x="99.7" y="25.3" transform="matrix(0.7943 -0.6076 0.6076 0.7943 6.751 71.2755)" class="st3" width="17.7" height="0.8"/>
				
					<rect x="100.2" y="25.9" transform="matrix(0.7943 -0.6076 0.6076 0.7943 6.4713 71.6921)" class="st0" width="17.7" height="0.8"/>
			</g>
			<g style="clip-path:url(#SVGID_00000121983782844559814900000001654003057300607632_);">
				
					<rect x="113.1" y="13.2" transform="matrix(0.7943 -0.6076 0.6076 0.7943 16.6262 76.9906)" class="st2" width="17.7" height="1.6"/>
				
					<rect x="112.9" y="13.2" transform="matrix(0.7943 -0.6076 0.6076 0.7943 16.7678 76.7798)" class="st3" width="17.7" height="0.8"/>
				
					<rect x="113.4" y="13.8" transform="matrix(0.7943 -0.6076 0.6076 0.7943 16.488 77.1964)" class="st0" width="17.7" height="0.8"/>
			</g>
			<g style="clip-path:url(#SVGID_00000121983782844559814900000001654003057300607632_);">
				
					<rect x="99" y="23.9" transform="matrix(0.7943 -0.6076 0.6076 0.7943 7.1747 70.6444)" class="st2" width="17.7" height="1.6"/>
				
					<rect x="98.8" y="24" transform="matrix(0.7943 -0.6076 0.6076 0.7943 7.3163 70.4336)" class="st3" width="17.7" height="0.8"/>
				
					<rect x="99.3" y="24.6" transform="matrix(0.7943 -0.6076 0.6076 0.7943 7.0366 70.8502)" class="st0" width="17.7" height="0.8"/>
			</g>
			<g style="clip-path:url(#SVGID_00000121983782844559814900000001654003057300607632_);">
				
					<rect x="98.1" y="22.7" transform="matrix(0.7943 -0.6076 0.6076 0.7943 7.74 69.8025)" class="st2" width="17.7" height="1.6"/>
				
					<rect x="97.8" y="22.8" transform="matrix(0.7943 -0.6076 0.6076 0.7943 7.8816 69.5917)" class="st3" width="17.7" height="0.8"/>
				
					<rect x="98.3" y="23.4" transform="matrix(0.7943 -0.6076 0.6076 0.7943 7.6018 70.0083)" class="st0" width="17.7" height="0.8"/>
			</g>
			<g style="clip-path:url(#SVGID_00000121983782844559814900000001654003057300607632_);">
				
					<rect x="97.1" y="21.4" transform="matrix(0.7943 -0.6076 0.6076 0.7943 8.3053 68.9607)" class="st2" width="17.7" height="1.6"/>
				
					<rect x="96.9" y="21.5" transform="matrix(0.7943 -0.6076 0.6076 0.7943 8.4469 68.7498)" class="st3" width="17.7" height="0.8"/>
				
					<rect x="97.3" y="22.1" transform="matrix(0.7943 -0.6076 0.6076 0.7943 8.1671 69.1665)" class="st0" width="17.7" height="0.8"/>
			</g>
		</g>
	</g>
	<g>
		<path class="st0" d="M143.5,16.1h-0.9H138H138h-0.9h-4.5c0,0-0.7,0.1-0.8,1.1V23v0.3c0,0,0,0.5,0.6,0.8c0.6,0.3,1.5,0.5,1.5,0.5
			v6.6h-10.7v-6.6c0,0,1-0.3,1.5-0.5c0.6-0.3,0.6-0.8,0.6-0.8V23v-5.8c-0.1-1-0.8-1.1-0.8-1.1h-0.9h-4.5h-0.1h-0.9h-4.5
			c0,0-0.7,0.1-0.8,1.1V23v0.3c0,0,0,0.5,0.6,0.8c0.6,0.3,1.5,0.5,1.5,0.5v10v2.7v10c0,0-1,0.3-1.5,0.5c-0.6,0.3-0.6,0.8-0.6,0.8
			v0.3v5.8c0.1,1,0.8,1.1,0.8,1.1h0.9h4.5h0.1h0.9h4.5c0,0,0.7-0.1,0.8-1.1v-5.8v-0.3c0,0,0-0.5-0.6-0.8c-0.6-0.3-1.5-0.5-1.5-0.5
			v-7.3H134v7.3c0,0-1,0.3-1.5,0.5c-0.6,0.3-0.6,0.8-0.6,0.8v0.3v5.8c0.1,1,0.8,1.1,0.8,1.1h0.9h4.5h0.1h0.9h4.5
			c0,0,0.7-0.1,0.8-1.1v-5.8v-0.3c0,0,0-0.5-0.6-0.8c-0.6-0.3-1.5-0.5-1.5-0.5v-10v-2.7v-10c0,0,1-0.3,1.5-0.5
			c0.6-0.3,0.6-0.8,0.6-0.8V23v-5.8C144.2,16.2,143.5,16.1,143.5,16.1z"/>
	</g>
	<g>
		<path class="st4" d="M144.6,15.2h-0.9h-4.5h-0.1h-0.9h-4.5c0,0-0.7,0.1-0.8,1.1v5.8v0.3c0,0,0,0.5,0.6,0.8
			c0.6,0.3,1.5,0.5,1.5,0.5v6.6h-10.7v-6.6c0,0,1-0.3,1.5-0.5c0.6-0.3,0.6-0.8,0.6-0.8v-0.3v-5.8c-0.1-1-0.8-1.1-0.8-1.1h-0.9h-4.5
			h-0.1h-0.9H115c0,0-0.7,0.1-0.8,1.1v5.8v0.3c0,0,0,0.5,0.6,0.8c0.6,0.3,1.5,0.5,1.5,0.5v10v2.7v10c0,0-1,0.3-1.5,0.5
			c-0.6,0.3-0.6,0.8-0.6,0.8V48v5.8c0.1,1,0.8,1.1,0.8,1.1h0.9h4.5h0.1h0.9h4.5c0,0,0.7-0.1,0.8-1.1V48v-0.3c0,0,0-0.5-0.6-0.8
			c-0.6-0.3-1.5-0.5-1.5-0.5v-7.3h10.7v7.3c0,0-1,0.3-1.5,0.5c-0.6,0.3-0.6,0.8-0.6,0.8V48v5.8c0.1,1,0.8,1.1,0.8,1.1h0.9h4.5h0.1
			h0.9h4.5c0,0,0.7-0.1,0.8-1.1V48v-0.3c0,0,0-0.5-0.6-0.8c-0.6-0.3-1.5-0.5-1.5-0.5v-10v-2.7v-10c0,0,1-0.3,1.5-0.5
			c0.6-0.3,0.6-0.8,0.6-0.8v-0.3v-5.8C145.4,15.4,144.6,15.2,144.6,15.2z"/>
	</g>
	<g>
		<g>
			<g>
				<polygon class="st0" points="92.8,78.3 90.2,78.3 90.2,73.5 88.1,73.5 88.1,85.2 90.2,85.2 90.2,80.4 92.8,80.4 92.8,85.2 
					94.9,85.2 94.9,73.5 92.8,73.5 				"/>
			</g>
			<g>
				<rect x="97.8" y="73.5" class="st0" width="2.1" height="11.8"/>
			</g>
			<g>
				<polygon class="st0" points="137,78.3 134.5,78.3 134.5,73.5 132.3,73.5 132.3,85.2 134.5,85.2 134.5,80.4 137,80.4 137,85.2 
					139.2,85.2 139.2,73.5 137,73.5 				"/>
			</g>
			<g>
				<polygon class="st0" points="142,73.5 142,75.6 142,78.3 142,80.4 142,83.1 142,85.2 144.2,85.2 147.7,85.2 147.7,83.1 
					144.2,83.1 144.2,80.4 147,80.4 147,78.3 144.2,78.3 144.2,75.6 147.7,75.6 147.7,73.5 144.2,73.5 				"/>
			</g>
			<g>
				<polygon class="st0" points="108,73.5 108,73.5 108,73.5 104.4,73.5 104.4,73.5 104.4,73.5 102.9,75 102.9,75 102.9,78.9 
					102.9,78.9 102.9,78.9 104.4,80.5 104.4,80.5 107.1,80.5 107.4,80.8 107.4,82.8 107.1,83.1 105.3,83.1 105,82.8 105,81.5 
					102.9,81.5 102.9,83.7 102.9,83.7 104.4,85.2 104.4,85.2 104.4,85.2 108,85.2 108,85.2 108,85.2 109.5,83.7 109.5,83.7 
					109.5,83.7 109.5,83.7 109.5,83.7 109.5,79.9 109.5,79.9 108,78.3 108,78.3 108,78.3 105.3,78.3 105,78 105,75.9 105.3,75.6 
					107.1,75.6 107.4,75.9 107.4,77.2 109.5,77.2 109.5,75 109.5,75 109.5,75 				"/>
			</g>
			<g>
				<path class="st5" d="M119.4,77.6v-1.7l0.3-0.3h1.8l0.3,0.3v1.3h2.1V75h0l-1.5-1.5l0,0v0h-3.5v0l0,0l-1.5,1.5h0v0l0,0l0,0v3.5h0
					l0,0l0.8,0.8l-0.8,0.8l0,0h0v0.2v3.2v0.1h0l0,0l1.6,1.6l0,0h3.4v0l0,0l1.6-1.6l0,0h0v-3.3h0.8v-2.1h-4.5L119.4,77.6z
					 M121.6,82.8l-0.3,0.3h-1.6l-0.3-0.3v-1.7l0.6-0.6h1.6V82.8z"/>
			</g>
			<g>
				<polygon class="st0" points="167.1,75 165.5,73.5 165.5,73.5 165.5,73.5 162,73.5 162,73.5 162,73.5 160.5,75 160.5,75 
					160.5,75 160.5,75 160.5,75 160.5,78.9 160.5,78.9 160.5,78.9 162,80.5 162,80.5 164.7,80.5 165,80.8 165,82.8 164.7,83.1 
					162.9,83.1 162.6,82.8 162.6,81.5 160.5,81.5 160.5,83.7 160.5,83.7 162,85.2 162,85.2 162,85.2 165.5,85.2 165.5,85.2 
					165.5,85.2 167.1,83.7 167.1,83.7 167.1,83.7 167.1,83.7 167.1,83.7 167.1,79.9 167.1,79.9 165.5,78.3 165.5,78.3 165.5,78.3 
					162.9,78.3 162.6,78 162.6,75.9 162.9,75.6 164.7,75.6 165,75.9 165,77.2 167.1,77.2 167.1,75 				"/>
			</g>
			<g>
				<path class="st0" d="M157.3,79.3L157.3,79.3l0-2.1v-0.1V75h0l-1.5-1.5l0,0v0h-2.9h-0.6h-1.5v11.8h2.1v-4.4h1.5l1.2,4.4h2.2
					l-1.3-5L157.3,79.3z M152.9,75.6h2l0.3,0.3v1.2v0.1v1.2l-0.3,0.3h-2V75.6z"/>
			</g>
		</g>
		<g>
			<path class="st0" d="M93.5,88.8c0.3-0.1,0.8-0.1,1.3-0.1c0.7,0,1.1,0.1,1.4,0.4c0.3,0.2,0.4,0.5,0.4,0.9c0,0.6-0.4,1-0.8,1.1v0
				c0.3,0.1,0.5,0.4,0.6,0.8c0.1,0.5,0.3,1.1,0.4,1.3h-1c-0.1-0.1-0.2-0.5-0.3-1c-0.1-0.6-0.3-0.7-0.7-0.7h-0.3v1.7h-1V88.8z
				 M94.5,90.7h0.4c0.5,0,0.8-0.3,0.8-0.6c0-0.4-0.3-0.6-0.7-0.6c-0.2,0-0.4,0-0.5,0V90.7z"/>
			<path class="st0" d="M100.3,91.3h-1.6v1.1h1.8v0.8h-2.8v-4.4h2.7v0.8h-1.7v0.9h1.6V91.3z"/>
			<path class="st0" d="M101.5,88.8c0.4-0.1,0.8-0.1,1.4-0.1c0.8,0,1.4,0.2,1.8,0.5c0.5,0.3,0.8,0.9,0.8,1.7c0,0.9-0.3,1.4-0.7,1.8
				c-0.5,0.4-1.2,0.6-2,0.6c-0.5,0-0.9,0-1.1-0.1V88.8z M102.5,92.5c0.1,0,0.2,0,0.3,0c0.9,0,1.5-0.5,1.5-1.6c0-0.9-0.5-1.4-1.4-1.4
				c-0.2,0-0.4,0-0.5,0V92.5z"/>
			<path class="st0" d="M109,91.3h-1.6v1.1h1.8v0.8h-2.8v-4.4h2.7v0.8h-1.7v0.9h1.6V91.3z"/>
			<path class="st0" d="M110.1,88.8h2.7v0.8h-1.7v1h1.6v0.8h-1.6v1.8h-1V88.8z"/>
			<path class="st0" d="M114.8,88.8v4.4h-1v-4.4H114.8z"/>
			<path class="st0" d="M116,93.2v-4.4h1.2l0.9,1.6c0.3,0.5,0.5,1,0.7,1.5l0,0c-0.1-0.6-0.1-1.2-0.1-1.9v-1.3h0.9v4.4h-1.1l-1-1.7
				c-0.3-0.5-0.6-1-0.8-1.6l0,0c0,0.6,0,1.2,0,1.9v1.3H116z"/>
			<path class="st0" d="M121.8,88.8v4.4h-1v-4.4H121.8z"/>
			<path class="st0" d="M122.9,93.2v-4.4h1.2l0.9,1.6c0.3,0.5,0.5,1,0.7,1.5l0,0c-0.1-0.6-0.1-1.2-0.1-1.9v-1.3h0.9v4.4h-1.1l-1-1.7
				c-0.3-0.5-0.6-1-0.8-1.6l0,0c0,0.6,0,1.2,0,1.9v1.3H122.9z"/>
			<path class="st0" d="M131.4,93c-0.3,0.1-0.9,0.2-1.5,0.2c-0.8,0-1.4-0.2-1.8-0.6c-0.4-0.4-0.6-1-0.6-1.6c0-1.5,1.1-2.3,2.5-2.3
				c0.6,0,1,0.1,1.2,0.2l-0.2,0.8c-0.2-0.1-0.5-0.2-1-0.2c-0.8,0-1.5,0.5-1.5,1.4c0,0.9,0.6,1.5,1.4,1.5c0.2,0,0.4,0,0.5-0.1v-0.9
				h-0.7v-0.8h1.7V93z"/>
			<path class="st0" d="M134.1,88.8h2.7v0.8h-1.7v1h1.6v0.8h-1.6v1.8h-1V88.8z"/>
			<path class="st0" d="M138.4,92.1l-0.3,1.1h-1l1.4-4.4h1.3l1.4,4.4H140l-0.3-1.1H138.4z M139.5,91.3l-0.3-0.9
				c-0.1-0.3-0.2-0.6-0.2-0.9h0c-0.1,0.3-0.1,0.6-0.2,0.9l-0.3,0.9H139.5z"/>
			<path class="st0" d="M142,92.2c0.3,0.1,0.7,0.3,1.1,0.3c0.5,0,0.7-0.2,0.7-0.5c0-0.3-0.2-0.4-0.7-0.6c-0.7-0.3-1.2-0.7-1.2-1.3
				c0-0.8,0.6-1.3,1.7-1.3c0.5,0,0.9,0.1,1.1,0.2l-0.2,0.8c-0.2-0.1-0.5-0.2-0.9-0.2c-0.4,0-0.6,0.2-0.6,0.4c0,0.3,0.2,0.4,0.8,0.6
				c0.8,0.3,1.1,0.7,1.1,1.3c0,0.7-0.6,1.4-1.8,1.4c-0.5,0-1-0.1-1.3-0.3L142,92.2z"/>
			<path class="st0" d="M146.8,88.8v1.7h1.7v-1.7h1v4.4h-1v-1.9h-1.7v1.9h-1v-4.4H146.8z"/>
			<path class="st0" d="M151.6,88.8v4.4h-1v-4.4H151.6z"/>
			<path class="st0" d="M156.8,91c0,1.5-0.9,2.3-2.2,2.3c-1.3,0-2.1-1-2.1-2.3c0-1.3,0.9-2.3,2.2-2.3C156,88.7,156.8,89.7,156.8,91z
				 M153.6,91c0,0.9,0.4,1.5,1.1,1.5c0.7,0,1.1-0.6,1.1-1.5c0-0.8-0.4-1.5-1.1-1.5C154,89.5,153.6,90.1,153.6,91z"/>
			<path class="st0" d="M157.7,93.2v-4.4h1.2l0.9,1.6c0.3,0.5,0.5,1,0.7,1.5l0,0c-0.1-0.6-0.1-1.2-0.1-1.9v-1.3h0.9v4.4h-1.1l-1-1.7
				c-0.3-0.5-0.6-1-0.8-1.6l0,0c0,0.6,0,1.2,0,1.9v1.3H157.7z"/>
		</g>
	</g>
</g>
</svg>
