<svg xmlns="http://www.w3.org/2000/svg" xmlns:xlink="http://www.w3.org/1999/xlink" id="Layer_1" x="0px" y="0px" viewBox="0 0 250 100" style="enable-background:new 0 0 250 100;" xml:space="preserve"><style type="text/css">	.st0{clip-path:url(#SVGID_00000116228306722478245120000005301442502392168595_);fill:#1D1D1B;}</style><g>	<defs>		<rect id="SVGID_1_" x="13.1" y="23.4" width="224.2" height="53.4"></rect>	</defs>	<clipPath id="SVGID_00000165210337164559894490000001122415055808612786_">		<use xlink:href="#SVGID_1_" style="overflow:visible;"></use>	</clipPath>	<path style="clip-path:url(#SVGID_00000165210337164559894490000001122415055808612786_);fill:#1D1D1B;" d="M23.6,55.4v2.9  c0,1.5,0.1,2.1,0.3,2.5c0.5,1.1,1.4,1.2,2.3,1.2c0.5,0,1.5,0,2-0.6c0.5-0.5,0.5-1.5,0.5-2.1v-2.1c0-1.3-0.5-2.5-1.6-3.6l-5.3-4.9  c-0.8-0.8-1.5-1.5-2.1-2.5c-0.8-1.3-1-2.6-1-4.1v-2.5c0-1.5,0.7-3,1.7-4c1.8-1.7,4.8-1.8,6-1.8c1.8,0,4,0.3,5.7,1.9  c1.7,1.6,1.8,3.6,1.8,4.9v3.2h-5.2V41c0-0.7,0-1.5-0.6-2.2c-0.5-0.5-1-0.7-1.8-0.7c-0.6,0-1.5,0.2-1.9,0.6  c-0.5,0.5-0.5,1.1-0.5,1.7v1.5c0,1.1,0.3,1.7,1.3,2.6l5.3,4.9c1.7,1.6,3.5,3.4,3.5,6.7v3.6c0,1.5-0.2,3.3-1.8,4.9  c-1.7,1.6-3.7,1.8-5.6,1.8c-1.7,0-3.6-0.3-5.3-1.5c-2.4-1.6-2.7-4-2.7-5.6v-4H23.6z"></path>	<polygon style="clip-path:url(#SVGID_00000165210337164559894490000001122415055808612786_);fill:#1D1D1B;" points="40.9,66   40.9,38.6 35.3,38.6 35.3,34.1 51.6,34.1 51.6,38.6 46.1,38.6 46.1,66  "></polygon>	<polygon style="clip-path:url(#SVGID_00000165210337164559894490000001122415055808612786_);fill:#1D1D1B;" points="53.9,34.1   67.2,34.1 67.2,38.6 59.1,38.6 59.1,46.2 65.4,46.2 65.4,50.7 59.1,50.7 59.1,61.5 67.9,61.5 67.9,66 53.9,66  "></polygon>	<polygon style="clip-path:url(#SVGID_00000165210337164559894490000001122415055808612786_);fill:#1D1D1B;" points="74.3,66   69,34.1 74.5,34.1 77.4,56.1 80.2,34.1 85.7,34.1 80.5,66  "></polygon>	<polygon style="clip-path:url(#SVGID_00000165210337164559894490000001122415055808612786_);fill:#1D1D1B;" points="88,34.1   101.2,34.1 101.2,38.6 93.1,38.6 93.1,46.2 99.4,46.2 99.4,50.7 93.1,50.7 93.1,61.5 101.9,61.5 101.9,66 88,66  "></polygon>	<polygon style="clip-path:url(#SVGID_00000165210337164559894490000001122415055808612786_);fill:#1D1D1B;" points="124.4,66   120.7,42 120.5,42 120.7,46.2 120.7,66 115.6,66 115.6,34.1 123.8,34.1 126.8,54.7 127,54.7 130,34.1 138.2,34.1 138.2,66 133,66   133,46.2 133.3,42 133.1,42 129.3,66  "></polygon>	<path style="clip-path:url(#SVGID_00000165210337164559894490000001122415055808612786_);fill:#1D1D1B;" d="M153.2,66l-0.9-5.9  h-5.5l-0.9,5.9h-5.4l5.9-31.8h6.4l5.9,31.8H153.2z M151.7,55.6L149.6,43h-0.1l-2.1,12.7H151.7z"></path>	<path style="clip-path:url(#SVGID_00000165210337164559894490000001122415055808612786_);fill:#1D1D1B;" d="M160.9,34.1h9.8  c1,0,2.8,0.1,4.3,1.5c1.7,1.7,1.7,3.7,1.7,5.6v17c0,1.9-0.1,4.4-2.1,6.1c-1.5,1.4-3.2,1.5-4.5,1.5h-9.3V34.1z M168.6,61.6  c1.3,0,2.1-0.6,2.4-1.1c0.5-0.6,0.5-2.1,0.5-2.9V42.1c0-0.8,0-1.9-0.5-2.7c-0.6-0.8-1.4-0.9-2.1-0.9h-2.8v23.1H168.6z"></path>	<path style="clip-path:url(#SVGID_00000165210337164559894490000001122415055808612786_);fill:#1D1D1B;" d="M180.2,34.1h9.8  c1,0,2.8,0.1,4.3,1.5c1.7,1.7,1.7,3.7,1.7,5.6v17c0,1.9-0.1,4.4-2.1,6.1c-1.5,1.4-3.2,1.5-4.5,1.5h-9.3V34.1z M188,61.6  c1.3,0,2.1-0.6,2.4-1.1c0.5-0.6,0.5-2.1,0.5-2.9V42.1c0-0.8,0-1.9-0.5-2.7c-0.6-0.8-1.4-0.9-2.1-0.9h-2.8v23.1H188z"></path>	<polygon style="clip-path:url(#SVGID_00000165210337164559894490000001122415055808612786_);fill:#1D1D1B;" points="199.6,34.1   212.9,34.1 212.9,38.6 204.8,38.6 204.8,46.2 211.1,46.2 211.1,50.7 204.8,50.7 204.8,61.5 213.6,61.5 213.6,66 199.6,66  "></polygon>	<polygon style="clip-path:url(#SVGID_00000165210337164559894490000001122415055808612786_);fill:#1D1D1B;" points="226.5,66   221,47.2 220.9,47.2 221.1,50.8 221.1,66 215.9,66 215.9,34.1 221.6,34.1 227,52.1 227.1,52.1 226.8,48.7 226.8,34.1 232,34.1   232,66  "></polygon></g></svg>