<svg id="Layer_1" data-name="Layer 1" xmlns="http://www.w3.org/2000/svg" viewBox="0 0 250 100"><defs><style>.cls-1{fill:#2a3766;}.cls-2{fill:#d1162b;}.cls-3{fill:#fff;}</style></defs><polygon class="cls-1" points="20.43 45.38 16.12 45.38 16.12 56.23 14.33 56.23 14.33 45.38 10.02 45.38 10.02 43.77 20.43 43.77 20.43 45.38"/><path class="cls-1" d="M33.67,43.61a6.4,6.4,0,1,1,0,12.78,6.4,6.4,0,1,1,0-12.78m0,11.14a4.75,4.75,0,1,0,0-9.5,4.75,4.75,0,1,0,0,9.5"/><polygon class="cls-1" points="60.39 56.23 58.6 56.23 58.6 46.53 58.57 46.53 54.73 51.35 54.44 51.35 50.6 46.53 50.57 46.53 50.57 56.23 48.78 56.23 48.78 43.77 50.46 43.77 54.58 48.88 58.73 43.77 60.39 43.77 60.39 56.23"/><polygon class="cls-1" points="82.13 56.23 80.33 56.23 80.33 46.53 80.3 46.53 76.46 51.35 76.18 51.35 72.33 46.53 72.31 46.53 72.31 56.23 70.51 56.23 70.51 43.77 72.19 43.77 76.32 48.88 80.46 43.77 82.13 43.77 82.13 56.23"/><polygon class="cls-1" points="98.77 43.77 100.92 43.77 96.3 49.65 96.3 56.23 94.51 56.23 94.51 49.64 89.89 43.77 92.05 43.77 95.38 48.06 98.77 43.77"/><polygon class="cls-1" points="149.35 56.23 147.56 56.23 147.56 50.8 140.57 50.8 140.57 56.23 138.79 56.23 138.79 43.77 140.57 43.77 140.57 49.2 147.56 49.2 147.56 43.77 149.35 43.77 149.35 56.23"/><rect class="cls-1" x="156.76" y="43.77" width="1.79" height="12.45"/><polygon class="cls-1" points="167.68 54.62 173.31 54.62 173.31 56.23 165.89 56.23 165.89 43.77 167.68 43.77 167.68 54.62"/><polygon class="cls-1" points="185.1 45.38 180.24 45.38 180.24 48.83 185.1 48.83 185.1 50.44 180.24 50.44 180.24 56.23 178.45 56.23 178.45 43.77 185.1 43.77 185.1 45.38"/><rect class="cls-1" x="191.37" y="43.77" width="1.78" height="12.45"/><path class="cls-1" d="M210.19,55.37a10.91,10.91,0,0,1-4.75,1,6.28,6.28,0,0,1-6.63-6.32,6.45,6.45,0,0,1,6.69-6.46,10,10,0,0,1,4.44,1.06v1.8a9.37,9.37,0,0,0-4.48-1.23,4.76,4.76,0,1,0,.24,9.51,8.9,8.9,0,0,0,2.7-.49V51.7H206V50.09h4.18Z"/><polygon class="cls-1" points="224.08 45.38 218.79 45.38 218.79 49.14 223.89 49.14 223.89 50.75 218.79 50.75 218.79 54.62 224.24 54.62 224.24 56.23 217 56.23 217 43.77 224.08 43.77 224.08 45.38"/><path class="cls-1" d="M233.49,43.77c2.53,0,4.1,1.33,4.1,3.49a3.12,3.12,0,0,1-2.08,3.05,10.34,10.34,0,0,1,2.77,3.45c.53.86.84,1.28,1.7,2.47h-2.13l-1.64-2.56c-1.65-2.55-2.4-2.85-3.31-2.85h-.75v5.41h-1.79V43.77Zm-1.34,5.44h1.15c1.92,0,2.46-1,2.45-2S235,45.3,233.3,45.3h-1.15Z"/><rect class="cls-2" x="119.08" y="46.87" width="9.57" height="6.25"/><rect class="cls-3" x="109.49" y="46.88" width="9.58" height="6.23"/><rect class="cls-1" x="109.48" y="43.77" width="19.16" height="3.1"/><rect class="cls-1" x="109.48" y="53.1" width="19.16" height="3.11"/></svg>